<svg id="visual" viewBox="0 0 900 600" width="900" height="600" xmlns="http://www.w3.org/2000/svg" xmlns:xlink="http://www.w3.org/1999/xlink" version="1.1"><path d="M0 181L13.7 183C27.3 185 54.7 189 82 193C109.3 197 136.7 201 163.8 201C191 201 218 197 245.2 183C272.3 169 299.7 145 327 137C354.3 129 381.7 137 409 158C436.3 179 463.7 213 491 215C518.3 217 545.7 187 573 189C600.3 191 627.7 225 654.8 235C682 245 709 231 736.2 217C763.3 203 790.7 189 818 185C845.3 181 872.7 187 886.3 190L900 193L900 0L886.3 0C872.7 0 845.3 0 818 0C790.7 0 763.3 0 736.2 0C709 0 682 0 654.8 0C627.7 0 600.3 0 573 0C545.7 0 518.3 0 491 0C463.7 0 436.3 0 409 0C381.7 0 354.3 0 327 0C299.7 0 272.3 0 245.2 0C218 0 191 0 163.8 0C136.7 0 109.3 0 82 0C54.7 0 27.3 0 13.7 0L0 0Z" fill="#f5f5dc"></path><path d="M0 217L13.7 222C27.3 227 54.7 237 82 243C109.3 249 136.7 251 163.8 258C191 265 218 277 245.2 264C272.3 251 299.7 213 327 201C354.3 189 381.7 203 409 232C436.3 261 463.7 305 491 308C518.3 311 545.7 273 573 267C600.3 261 627.7 287 654.8 296C682 305 709 297 736.2 284C763.3 271 790.7 253 818 252C845.3 251 872.7 267 886.3 275L900 283L900 191L886.3 188C872.7 185 845.3 179 818 183C790.7 187 763.3 201 736.2 215C709 229 682 243 654.8 233C627.7 223 600.3 189 573 187C545.7 185 518.3 215 491 213C463.7 211 436.3 177 409 156C381.7 135 354.3 127 327 135C299.7 143 272.3 167 245.2 181C218 195 191 199 163.8 199C136.7 199 109.3 195 82 191C54.7 187 27.3 183 13.7 181L0 179Z" fill="#ebebce"></path><path d="M0 367L13.7 360C27.3 353 54.7 339 82 344C109.3 349 136.7 373 163.8 381C191 389 218 381 245.2 368C272.3 355 299.7 337 327 326C354.3 315 381.7 311 409 326C436.3 341 463.7 375 491 389C518.3 403 545.7 397 573 402C600.3 407 627.7 423 654.8 416C682 409 709 379 736.2 361C763.3 343 790.7 337 818 347C845.3 357 872.7 383 886.3 396L900 409L900 281L886.3 273C872.7 265 845.3 249 818 250C790.7 251 763.3 269 736.2 282C709 295 682 303 654.8 294C627.7 285 600.3 259 573 265C545.7 271 518.3 309 491 306C463.7 303 436.3 259 409 230C381.7 201 354.3 187 327 199C299.7 211 272.3 249 245.2 262C218 275 191 263 163.8 256C136.7 249 109.3 247 82 241C54.7 235 27.3 225 13.7 220L0 215Z" fill="#e1e1c0"></path><path d="M0 469L13.7 475C27.3 481 54.7 493 82 493C109.3 493 136.7 481 163.8 477C191 473 218 477 245.2 485C272.3 493 299.7 505 327 510C354.3 515 381.7 513 409 511C436.3 509 463.7 507 491 510C518.3 513 545.7 521 573 527C600.3 533 627.7 537 654.8 539C682 541 709 541 736.2 534C763.3 527 790.7 513 818 509C845.3 505 872.7 511 886.3 514L900 517L900 407L886.3 394C872.7 381 845.3 355 818 345C790.7 335 763.3 341 736.2 359C709 377 682 407 654.8 414C627.7 421 600.3 405 573 400C545.7 395 518.3 401 491 387C463.7 373 436.3 339 409 324C381.7 309 354.3 313 327 324C299.7 335 272.3 353 245.2 366C218 379 191 387 163.8 379C136.7 371 109.3 347 82 342C54.7 337 27.3 351 13.7 358L0 365Z" fill="#d7d7b2"></path><path d="M0 601L13.7 601C27.3 601 54.7 601 82 601C109.3 601 136.7 601 163.8 601C191 601 218 601 245.2 601C272.3 601 299.7 601 327 601C354.3 601 381.7 601 409 601C436.3 601 463.7 601 491 601C518.3 601 545.7 601 573 601C600.3 601 627.7 601 654.8 601C682 601 709 601 736.2 601C763.3 601 790.7 601 818 601C845.3 601 872.7 601 886.3 601L900 601L900 515L886.3 512C872.7 509 845.3 503 818 507C790.7 511 763.3 525 736.2 532C709 539 682 539 654.8 537C627.7 535 600.3 531 573 525C545.7 519 518.3 511 491 508C463.7 505 436.3 507 409 509C381.7 511 354.3 513 327 508C299.7 503 272.3 491 245.2 483C218 475 191 471 163.8 475C136.7 479 109.3 491 82 491C54.7 491 27.3 479 13.7 473L0 467Z" fill="#cdcda5"></path></svg>